<svg xmlns="http://www.w3.org/2000/svg" viewBox="0 0 99.73 99.73"><path d="M94.76 49.83l-4.52-.57a31.019 31.019 0 00-5.81-9.17L87.75 26c.14-.58 0-1.19-.37-1.66s-.93-.74-1.53-.74h-.43-.01c-5.52 0-10.5 3.47-12.46 8.57-1.38-.55-2.81-1-4.26-1.35-1.05-.25-2.1.4-2.34 1.45-.25 1.05.4 2.1 1.45 2.34 4.96 1.17 9.38 3.68 12.87 7.16.13.19.29.35.47.49a27.14 27.14 0 015.85 9.45c.25.69.86 1.18 1.59 1.27l5.68.71c.89.11 1.56.87 1.56 1.76v9.82c0 .89-.67 1.65-1.56 1.76l-5.26.66c-.76.09-1.39.62-1.62 1.35-1.56 4.99-4.53 9.4-8.58 12.76-.45.37-.71.92-.71 1.5v10.77c0 .97-.79 1.75-1.75 1.75h-11.3c-.97 0-1.75-.79-1.75-1.75v-4.1c0-1.08-.87-1.95-1.95-1.95H44.99c-1.08 0-1.95.87-1.95 1.95v4.1c0 .97-.79 1.75-1.75 1.75h-11.3c-.97 0-1.75-.79-1.75-1.75v-7.6c0-.71-.39-1.37-1.02-1.71a27.081 27.081 0 01-14.17-23.81c0-14.93 12.14-27.07 27.07-27.07h2.44c1.08 0 1.95-.87 1.95-1.95s-.87-1.95-1.95-1.95h-2.44c-14.46 0-26.63 9.96-30.02 23.38H8.67c-2.63 0-4.77-2.14-4.77-4.77 0-2.63 2.14-4.77 4.77-4.77 1.08 0 1.95-.87 1.95-1.95s-.87-1.95-1.95-1.95C3.89 39.94 0 43.83 0 48.61s3.89 8.67 8.67 8.67h.71a30.953 30.953 0 0014.97 30.34v6.47c0 3.11 2.53 5.65 5.65 5.65h11.3c3.11 0 5.65-2.53 5.65-5.65v-2.16h12.47v2.16c0 3.11 2.53 5.65 5.65 5.65h11.3c3.11 0 5.65-2.53 5.65-5.65v-9.87c3.96-3.48 6.94-7.87 8.71-12.79l4.05-.51c2.83-.35 4.97-2.78 4.97-5.63v-9.82c-.02-2.87-2.16-5.29-4.99-5.64zM81.15 36.99a31.138 31.138 0 00-4.65-3.15 9.522 9.522 0 016.83-6.11l-2.18 9.26z" fill="#344153"/><path d="M77.54 49.46c-.36-.36-.87-.57-1.38-.57-.51 0-1.01.21-1.38.57-.36.36-.57.86-.57 1.38 0 .51.21 1.02.57 1.38.36.36.86.57 1.38.57.51 0 1.01-.21 1.38-.57.36-.36.57-.87.57-1.38 0-.51-.21-1.02-.57-1.38zM57.12 11.36c-1.08 0-1.95.87-1.95 1.95v7.73c0 1.08.87 1.95 1.95 1.95s1.95-.87 1.95-1.95v-7.73c0-1.08-.88-1.95-1.95-1.95zM58.49 4.87a1.96 1.96 0 00-1.38-.57c-.51 0-1.01.21-1.38.57-.36.36-.57.86-.57 1.38 0 .51.21 1.01.57 1.38s.86.57 1.38.57c.51 0 1.02-.21 1.38-.57.36-.36.57-.86.57-1.38.01-.52-.2-1.02-.57-1.38zM41.29 0c-1.08 0-1.95.87-1.95 1.95v3.31c0 1.08.87 1.95 1.95 1.95s1.95-.87 1.95-1.95V1.95C43.24.87 42.37 0 41.29 0zM22.19 60.96c0-1.08-.87-1.95-1.95-1.95s-1.95.87-1.95 1.95v.1c.01 1.07.88 1.94 1.96 1.94h.01c1.08-.01 1.94-.88 1.94-1.96v-.08zM30.81 76.29a18.037 18.037 0 01-7.44-8.91c-.38-1-1.51-1.51-2.52-1.12-1 .38-1.51 1.51-1.12 2.52 1.72 4.49 4.94 8.34 9.05 10.85.32.19.67.28 1.01.28.66 0 1.3-.33 1.67-.94.57-.93.27-2.13-.65-2.68z" fill="#344153"/><path d="M35.48 17.17c0-3.21 2.6-5.81 5.81-5.81 3.21 0 5.81 2.6 5.81 5.81s-2.6 5.81-5.81 5.81c-3.21 0-5.81-2.6-5.81-5.81zM51.31 37.01c0-3.21 2.6-5.81 5.81-5.81s5.81 2.6 5.81 5.81-2.6 5.81-5.81 5.81-5.81-2.6-5.81-5.81z" fill="#3bb77f"/><path d="M41.29 9.36c-4.51 0-8.18 3.67-8.18 8.18s3.67 8.18 8.18 8.18 8.18-3.67 8.18-8.18-3.67-8.18-8.18-8.18zm0 12.47a4.29 4.29 0 110-8.58c2.37 0 4.29 1.92 4.29 4.29s-1.92 4.29-4.29 4.29zM65.84 41.29h-1.75a8.125 8.125 0 001.22-4.28c0-4.51-3.67-8.18-8.18-8.18s-8.18 3.67-8.18 8.18c0 1.57.45 3.04 1.22 4.28h-9.64c-1.08 0-1.95.87-1.95 1.95s.87 1.95 1.95 1.95h25.32c1.08 0 1.95-.87 1.95-1.95s-.89-1.95-1.96-1.95zm-8.72 0c-2.36 0-4.29-1.92-4.29-4.28s1.92-4.29 4.29-4.29c2.36 0 4.28 1.92 4.28 4.29s-1.92 4.28-4.28 4.28z" fill="#344153"/></svg>