<svg xmlns="http://www.w3.org/2000/svg" viewBox="0 0 79.95 58.57"><path fill="#3bb77f" d="M6.539 35.201L19.3 16.333l3.529 2.386-12.762 18.869zM56.15 18.241l4.268-2.934 13.396 19.49-4.27 2.934z"/><path d="M79.2.14c-.45-.22-1-.17-1.4.14L56.14 16.84a2.656 2.656 0 00-.66 3.47l-3.42.93-4.99-2.12a.924.924 0 00-.27-.08c-4.78-.91-7.27-.03-8.55.95H24.64c.47-1.12.12-2.41-.84-3.15L2.14.27c-.4-.31-.95-.36-1.4-.14S0 .83 0 1.33v31.98c0 .48.26.92.67 1.16l8.25 4.71c.4.23.86.35 1.32.35.68 0 1.33-.26 1.82-.73l1.55 1.23c-.9 1.15-1.1 2.7-.51 4.03a3.957 3.957 0 003.31 2.36c.11.01.23.01.34.01.2 0 .41-.02.61-.05a4.625 4.625 0 004.24 4.21c.13.01.26.02.39.02h.06c.04.87.36 1.7.92 2.36.76.89 1.87 1.41 3.05 1.41.47 0 .93-.08 1.37-.25a3.922 3.922 0 003.48 2.86c.11.01.23.01.34.01.92.01 1.81-.31 2.51-.9l2.09-1.61 4.92 3.29c.76.51 1.66.78 2.57.78a4.642 4.642 0 004.64-4.19c1.33.41 2.78.19 3.93-.6a4.61 4.61 0 001.99-3.44c1.54.51 3.24.17 4.47-.88a4.65 4.65 0 001.55-4.29c1.33-.15 2.54-.88 3.29-2 .74-1.12.97-2.51.62-3.81l2.63-2.63 1.07 1.61a2.677 2.677 0 003.54.84l8.25-4.71c.42-.24.67-.68.67-1.16V1.33c0-.5-.29-.97-.75-1.19zM2.67 32.54V4.03L17.54 15.4 5.34 34.07l-2.67-1.53zm7.57 4.33l-2.58-1.48 12.01-18.36 2.52 1.93-11.95 17.91zm7.33 6.61c-.26.23-.6.34-.95.3-.51-.04-.96-.39-1.12-.87-.17-.49-.03-1.03.34-1.38l3.33-2.58c.23-.2.53-.31.84-.31h.11c.52.04.96.39 1.12.88.17.49.03 1.03-.34 1.38l-3.33 2.58zm4.25 4.48a2 2 0 01-1.73-1.35c-.25-.76-.04-1.59.56-2.12l4.2-3.25c.62-.52 1.49-.62 2.21-.25s1.14 1.14 1.08 1.94c-.04.49-.26.95-.62 1.29l-1.14.89-3.09 2.39c-.42.34-.94.51-1.47.46zm6.81 2.06l-1.78 1.39c-.26.22-.61.33-.95.31-.35-.03-.66-.19-.89-.46-.23-.26-.33-.6-.3-.95.02-.33.17-.63.42-.85l3.11-2.43.92-.71.03-.03.94-.73c.23-.2.53-.31.84-.31h.11a1.306 1.306 0 01.78 2.26l-3.12 2.43-.11.08zm6.73 1.45l-3.33 2.58c-.26.23-.6.34-.95.3-.51-.04-.96-.39-1.12-.87-.17-.49-.04-1.03.34-1.38l.06-.05 3.27-2.53a1.304 1.304 0 011.73 1.95zm25.59-9.78c-.61.9-1.83 1.16-2.75.57l-.01-.01-8.75-6.05c-.39-.27-.9-.31-1.33-.11a1.331 1.331 0 00-.19 2.3l8.47 5.85c.67.45 1.01 1.25.85 2.04a2 2 0 01-1.56 1.57c-.51.11-1.05 0-1.48-.28l-8.76-6.04a1.331 1.331 0 00-1.51 2.19l6.4 4.41c.92.65 1.18 1.91.58 2.86-.6.91-1.82 1.17-2.74.58l-2.36-1.67-2.4-1.7c-.39-.28-.89-.32-1.33-.12-.43.2-.73.61-.77 1.09-.04.47.17.94.56 1.21l2.47 1.75c.12.1.23.2.34.31.75.71.84 1.89.19 2.7-.65.81-1.81 1-2.67.43l-4.39-2.93c.75-1.15.84-2.6.25-3.84a3.955 3.955 0 00-3.14-2.23 3.939 3.939 0 00-3.62-3.98c-.17-.01-.34-.01-.51 0a4.613 4.613 0 00-2.39-3.93 4.658 4.658 0 00-4.6.06 3.964 3.964 0 00-2.65-2.6 3.982 3.982 0 00-3.64.74l-1.82 1.41-2.08-1.66 9.32-13.98h11.7a3.841 3.841 0 00-1.24 3.57 3.779 3.779 0 003.17 3.1c2.46.35 4.98-.01 7.24-1.04l3.4 2.16c.08.04.16.08.24.11l12.99 8.37c.26.18.47.41.63.67.01.02.01.03.02.05.33.67.29 1.46-.13 2.07zm1.37-4.63c-.14-.14-.29-.26-.45-.38l-13.18-8.49c-.06-.03-.12-.05-.19-.07l-3.92-2.49c-.42-.27-.95-.28-1.38-.03-1.92.99-4.09 1.38-6.23 1.1-.5-.06-.9-.44-.98-.94-.1-.52.16-1.04.62-1.29 1-.52 1.94-1.15 2.8-1.87.09-.08.17-.17.22-.28.04-.05.09-.1.14-.14.39-.33 2-1.35 6.38-.54l5.28 2.25c.28.12.58.14.87.06l4.71-1.28 7.88 11.82-2.57 2.57zm7.39-.19L57.76 18.95l2.52-1.93 12.01 18.36-2.58 1.49zm7.57-4.33l-2.67 1.53-12.2-18.67L77.28 4.03v28.51z" fill="#344153"/></svg>